<svg xmlns="http://www.w3.org/2000/svg" xmlns:xlink="http://www.w3.org/1999/xlink" width="500" zoomAndPan="magnify" viewBox="0 0 375 374.999991" height="500" preserveAspectRatio="xMidYMid meet" version="1.0"><defs><g/><clipPath id="b8084207ea"><path d="M 64.363281 326 L 309.613281 326 L 309.613281 366.292969 L 64.363281 366.292969 Z M 64.363281 326 " clip-rule="nonzero"/></clipPath><clipPath id="265a65fb3d"><path d="M 92 281.542969 L 183 281.542969 L 183 347 L 92 347 Z M 92 281.542969 " clip-rule="nonzero"/></clipPath><clipPath id="96350fa828"><path d="M 191 281.542969 L 282 281.542969 L 282 347 L 191 347 Z M 191 281.542969 " clip-rule="nonzero"/></clipPath><clipPath id="3e04d18ac1"><path d="M 70.167969 70.167969 L 304.832031 70.167969 L 304.832031 304.832031 L 70.167969 304.832031 Z M 70.167969 70.167969 " clip-rule="nonzero"/></clipPath><clipPath id="685b622303"><path d="M 187.5 70.167969 C 122.699219 70.167969 70.167969 122.699219 70.167969 187.5 C 70.167969 252.300781 122.699219 304.832031 187.5 304.832031 C 252.300781 304.832031 304.832031 252.300781 304.832031 187.5 C 304.832031 122.699219 252.300781 70.167969 187.5 70.167969 " clip-rule="nonzero"/></clipPath><clipPath id="6ad83bf596"><path d="M 112.453125 112.8125 L 261.832031 112.8125 L 261.832031 262.1875 L 112.453125 262.1875 Z M 112.453125 112.8125 " clip-rule="nonzero"/></clipPath><clipPath id="7876323d88"><path d="M 187.144531 112.8125 C 145.894531 112.8125 112.453125 146.25 112.453125 187.5 C 112.453125 228.75 145.894531 262.1875 187.144531 262.1875 C 228.394531 262.1875 261.832031 228.75 261.832031 187.5 C 261.832031 146.25 228.394531 112.8125 187.144531 112.8125 " clip-rule="nonzero"/></clipPath><clipPath id="43180a2bf7"><path d="M 173 179 L 215.492188 179 L 215.492188 196 L 173 196 Z M 173 179 " clip-rule="nonzero"/></clipPath><clipPath id="86298396f2"><path d="M 158.546875 178.546875 L 176.386719 178.546875 L 176.386719 196.546875 L 158.546875 196.546875 Z M 158.546875 178.546875 " clip-rule="nonzero"/></clipPath><clipPath id="489fe9ffde"><path d="M 132.832031 149.769531 L 242.953125 149.769531 L 242.953125 242.507812 L 132.832031 242.507812 Z M 132.832031 149.769531 " clip-rule="nonzero"/></clipPath><clipPath id="2096fb0955"><path d="M 172.191406 121.058594 L 265.578125 121.058594 L 265.578125 191.839844 L 172.191406 191.839844 Z M 172.191406 121.058594 " clip-rule="nonzero"/></clipPath></defs><g clip-path="url(#b8084207ea)"><path fill="#f80a10" d="M 309.613281 349.160156 L 303.988281 350.789062 C 227.425781 321.203125 195.726562 366.167969 195.726562 366.167969 L 178.257812 366.167969 C 178.257812 366.167969 146.558594 321.203125 69.996094 350.789062 L 64.363281 349.160156 L 76.363281 334.375 C 76.363281 334.375 134.460938 305.628906 186.984375 355.667969 C 239.507812 305.628906 297.613281 334.375 297.613281 334.375 Z M 309.613281 349.160156 " fill-opacity="1" fill-rule="nonzero"/></g><g clip-path="url(#265a65fb3d)"><path fill="#000000" d="M 181.605469 346.164062 C 166.15625 301.691406 92.304688 319.539062 92.304688 319.539062 L 120.292969 281.671875 L 182.34375 282.359375 Z M 181.605469 346.164062 " fill-opacity="1" fill-rule="nonzero"/></g><g clip-path="url(#96350fa828)"><path fill="#000000" d="M 192.371094 346.164062 C 207.820312 301.691406 281.671875 319.539062 281.671875 319.539062 L 253.679688 281.671875 L 191.632812 282.359375 Z M 192.371094 346.164062 " fill-opacity="1" fill-rule="nonzero"/></g><g clip-path="url(#3e04d18ac1)"><g clip-path="url(#685b622303)"><path fill="#00b58b" d="M 70.167969 70.167969 L 304.832031 70.167969 L 304.832031 304.832031 L 70.167969 304.832031 Z M 70.167969 70.167969 " fill-opacity="1" fill-rule="nonzero"/></g></g><g clip-path="url(#6ad83bf596)"><g clip-path="url(#7876323d88)"><path fill="#ffffff" d="M 112.453125 112.8125 L 261.832031 112.8125 L 261.832031 262.1875 L 112.453125 262.1875 Z M 112.453125 112.8125 " fill-opacity="1" fill-rule="nonzero"/></g></g><g clip-path="url(#43180a2bf7)"><path fill="#ff0000" d="M 207.636719 179.382812 L 173.070312 179.382812 C 175.621094 181.175781 177.296875 184.164062 177.296875 187.546875 C 177.296875 190.929688 175.621094 193.917969 173.070312 195.714844 L 207.636719 195.714844 C 211.945312 195.714844 215.4375 192.183594 215.4375 187.832031 L 215.4375 187.261719 C 215.4375 182.910156 211.945312 179.382812 207.636719 179.382812 " fill-opacity="1" fill-rule="nonzero"/></g><path fill="#ffffff" d="M 167.453125 195.421875 C 163.148438 195.421875 159.660156 191.898438 159.660156 187.546875 C 159.660156 183.199219 163.148438 179.671875 167.453125 179.671875 C 171.757812 179.671875 175.25 183.199219 175.25 187.546875 C 175.25 191.898438 171.757812 195.421875 167.453125 195.421875 " fill-opacity="1" fill-rule="evenodd"/><path fill="#ffffff" d="M 185.839844 192.050781 C 185.839844 192.21875 185.832031 192.363281 185.816406 192.476562 C 185.804688 192.589844 185.785156 192.6875 185.757812 192.761719 C 185.726562 192.835938 185.695312 192.890625 185.652344 192.925781 C 185.609375 192.957031 185.5625 192.976562 185.507812 192.976562 L 180.582031 192.976562 C 180.402344 192.976562 180.246094 192.921875 180.121094 192.8125 C 179.996094 192.703125 179.933594 192.523438 179.933594 192.277344 L 179.933594 182.421875 C 179.933594 182.367188 179.953125 182.316406 179.988281 182.269531 C 180.023438 182.226562 180.085938 182.1875 180.167969 182.160156 C 180.25 182.132812 180.363281 182.109375 180.503906 182.09375 C 180.644531 182.078125 180.820312 182.070312 181.03125 182.070312 C 181.246094 182.070312 181.425781 182.078125 181.5625 182.09375 C 181.703125 182.109375 181.8125 182.132812 181.894531 182.160156 C 181.976562 182.1875 182.039062 182.226562 182.074219 182.269531 C 182.109375 182.316406 182.128906 182.367188 182.128906 182.421875 L 182.128906 191.15625 L 185.507812 191.15625 C 185.5625 191.15625 185.609375 191.171875 185.652344 191.199219 C 185.695312 191.230469 185.726562 191.28125 185.757812 191.351562 C 185.785156 191.421875 185.804688 191.515625 185.816406 191.628906 C 185.832031 191.742188 185.839844 191.882812 185.839844 192.050781 " fill-opacity="1" fill-rule="nonzero"/><path fill="#ffffff" d="M 189.316406 192.671875 C 189.316406 192.730469 189.300781 192.78125 189.265625 192.824219 C 189.226562 192.867188 189.167969 192.90625 189.085938 192.933594 C 189.003906 192.960938 188.890625 192.984375 188.753906 193 C 188.613281 193.015625 188.4375 193.027344 188.222656 193.027344 C 188.011719 193.027344 187.835938 193.015625 187.695312 193 C 187.554688 192.984375 187.441406 192.960938 187.359375 192.933594 C 187.277344 192.90625 187.214844 192.867188 187.179688 192.824219 C 187.144531 192.78125 187.125 192.730469 187.125 192.671875 L 187.125 182.421875 C 187.125 182.367188 187.144531 182.316406 187.179688 182.269531 C 187.214844 182.226562 187.277344 182.1875 187.363281 182.160156 C 187.449219 182.132812 187.558594 182.109375 187.699219 182.09375 C 187.835938 182.078125 188.011719 182.070312 188.222656 182.070312 C 188.4375 182.070312 188.613281 182.078125 188.753906 182.09375 C 188.890625 182.109375 189.003906 182.132812 189.085938 182.160156 C 189.167969 182.1875 189.226562 182.226562 189.265625 182.269531 C 189.300781 182.316406 189.316406 182.367188 189.316406 182.421875 L 189.316406 192.671875 " fill-opacity="1" fill-rule="nonzero"/><path fill="#ffffff" d="M 197.007812 192.589844 C 196.980469 192.683594 196.941406 192.761719 196.898438 192.820312 C 196.855469 192.878906 196.78125 192.921875 196.683594 192.953125 C 196.582031 192.984375 196.449219 193.003906 196.277344 193.011719 C 196.105469 193.023438 195.878906 193.027344 195.605469 193.027344 C 195.382812 193.027344 195.191406 193.023438 195.035156 193.023438 C 194.878906 193.019531 194.742188 193.011719 194.632812 193 C 194.519531 192.988281 194.429688 192.972656 194.363281 192.949219 C 194.292969 192.929688 194.234375 192.898438 194.1875 192.867188 C 194.140625 192.832031 194.105469 192.792969 194.078125 192.746094 C 194.054688 192.695312 194.03125 192.636719 194.007812 192.5625 L 190.8125 182.941406 C 190.746094 182.738281 190.707031 182.582031 190.691406 182.464844 C 190.679688 182.34375 190.707031 182.257812 190.773438 182.199219 C 190.84375 182.140625 190.960938 182.105469 191.128906 182.089844 C 191.292969 182.074219 191.527344 182.070312 191.824219 182.070312 C 192.082031 182.070312 192.28125 182.074219 192.421875 182.085938 C 192.566406 182.097656 192.679688 182.117188 192.753906 182.144531 C 192.832031 182.171875 192.886719 182.214844 192.917969 182.269531 C 192.949219 182.328125 192.976562 182.394531 193.003906 182.480469 L 195.621094 190.851562 L 195.628906 190.851562 L 198.195312 182.523438 C 198.214844 182.425781 198.242188 182.351562 198.277344 182.292969 C 198.3125 182.234375 198.367188 182.1875 198.449219 182.152344 C 198.527344 182.121094 198.644531 182.097656 198.792969 182.085938 C 198.941406 182.074219 199.144531 182.070312 199.40625 182.070312 C 199.660156 182.070312 199.859375 182.078125 200 182.09375 C 200.140625 182.109375 200.238281 182.152344 200.289062 182.214844 C 200.34375 182.28125 200.359375 182.371094 200.339844 182.488281 C 200.320312 182.605469 200.277344 182.761719 200.210938 182.957031 L 197.007812 192.589844 " fill-opacity="1" fill-rule="nonzero"/><path fill="#ffffff" d="M 208.082031 192.109375 C 208.082031 192.273438 208.078125 192.410156 208.0625 192.519531 C 208.050781 192.628906 208.027344 192.714844 208 192.78125 C 207.972656 192.847656 207.9375 192.898438 207.898438 192.929688 C 207.855469 192.960938 207.808594 192.976562 207.757812 192.976562 L 202.363281 192.976562 C 202.179688 192.976562 202.027344 192.921875 201.902344 192.8125 C 201.777344 192.703125 201.714844 192.523438 201.714844 192.277344 L 201.714844 182.816406 C 201.714844 182.570312 201.777344 182.390625 201.902344 182.28125 C 202.027344 182.171875 202.179688 182.121094 202.363281 182.121094 L 207.726562 182.121094 C 207.777344 182.121094 207.820312 182.132812 207.859375 182.160156 C 207.898438 182.1875 207.929688 182.238281 207.957031 182.308594 C 207.988281 182.378906 208.007812 182.46875 208.019531 182.578125 C 208.035156 182.683594 208.042969 182.824219 208.042969 182.992188 C 208.042969 183.148438 208.035156 183.28125 208.019531 183.390625 C 208.007812 183.5 207.988281 183.585938 207.957031 183.65625 C 207.929688 183.722656 207.898438 183.769531 207.859375 183.800781 C 207.820312 183.832031 207.777344 183.847656 207.726562 183.847656 L 203.890625 183.847656 L 203.890625 186.5 L 207.136719 186.5 C 207.1875 186.5 207.234375 186.515625 207.273438 186.542969 C 207.316406 186.574219 207.351562 186.625 207.378906 186.6875 C 207.40625 186.75 207.425781 186.839844 207.441406 186.949219 C 207.453125 187.054688 207.460938 187.1875 207.460938 187.347656 C 207.460938 187.507812 207.453125 187.640625 207.441406 187.75 C 207.425781 187.855469 207.40625 187.941406 207.378906 188.003906 C 207.351562 188.070312 207.316406 188.113281 207.273438 188.144531 C 207.234375 188.171875 207.1875 188.183594 207.136719 188.183594 L 203.890625 188.183594 L 203.890625 191.246094 L 207.757812 191.246094 C 207.808594 191.246094 207.855469 191.261719 207.898438 191.292969 C 207.9375 191.324219 207.972656 191.371094 208 191.441406 C 208.027344 191.507812 208.050781 191.59375 208.0625 191.703125 C 208.078125 191.8125 208.082031 191.949219 208.082031 192.109375 " fill-opacity="1" fill-rule="nonzero"/><g clip-path="url(#86298396f2)"><path fill="#f80a10" d="M 167.453125 195.421875 C 163.148438 195.421875 159.660156 191.898438 159.660156 187.546875 C 159.660156 183.199219 163.148438 179.671875 167.453125 179.671875 C 171.757812 179.671875 175.25 183.199219 175.25 187.546875 C 175.25 191.898438 171.757812 195.421875 167.453125 195.421875 Z M 173.753906 181.183594 C 172.070312 179.484375 169.832031 178.546875 167.453125 178.546875 C 165.074219 178.546875 162.835938 179.484375 161.15625 181.183594 C 159.472656 182.882812 158.546875 185.144531 158.546875 187.546875 C 158.546875 189.953125 159.472656 192.210938 161.15625 193.914062 C 162.835938 195.613281 165.074219 196.546875 167.453125 196.546875 C 169.832031 196.546875 172.070312 195.613281 173.753906 193.914062 C 175.4375 192.210938 176.363281 189.953125 176.363281 187.546875 C 176.363281 185.144531 175.4375 182.882812 173.753906 181.183594 " fill-opacity="1" fill-rule="evenodd"/></g><path fill="#f80a10" d="M 164.925781 183.472656 L 164.925781 191.621094 L 171.609375 187.546875 Z M 164.925781 183.472656 " fill-opacity="1" fill-rule="evenodd"/><g clip-path="url(#489fe9ffde)"><path fill="#000000" d="M 233.789062 213.179688 L 233.789062 181.445312 C 233.789062 180.117188 232.710938 179.039062 231.382812 179.039062 C 230.484375 179.039062 229.707031 179.53125 229.292969 180.257812 C 229.09375 180.609375 228.980469 181.011719 228.980469 181.445312 L 228.980469 213.742188 C 228.980469 214.109375 229.0625 214.472656 229.226562 214.804688 L 238.121094 232.867188 L 238.121094 237.699219 L 137.640625 237.699219 L 137.640625 232.867188 L 146.53125 214.804688 C 146.695312 214.472656 146.78125 214.109375 146.78125 213.742188 L 146.78125 154.59375 L 179.710938 154.59375 C 180.609375 154.59375 181.390625 154.097656 181.804688 153.371094 C 182.003906 153.019531 182.117188 152.617188 182.117188 152.1875 C 182.117188 150.859375 181.039062 149.78125 179.710938 149.78125 L 144.375 149.78125 C 143.046875 149.78125 141.972656 150.859375 141.972656 152.1875 L 141.972656 213.179688 L 133.078125 231.242188 C 132.917969 231.574219 132.832031 231.9375 132.832031 232.304688 L 132.832031 240.101562 C 132.832031 241.429688 133.910156 242.507812 135.234375 242.507812 L 240.527344 242.507812 C 241.855469 242.507812 242.929688 241.429688 242.929688 240.101562 L 242.929688 232.304688 C 242.929688 231.9375 242.84375 231.574219 242.683594 231.242188 L 233.789062 213.179688 " fill-opacity="1" fill-rule="nonzero"/></g><path fill="#000000" d="M 224.03125 180.121094 C 223.101562 180.121094 222.292969 180.652344 221.894531 181.429688 C 221.726562 181.757812 221.628906 182.128906 221.628906 182.527344 L 221.628906 205.96875 L 154.6875 205.96875 L 154.6875 162.160156 L 179.710938 162.160156 C 180.644531 162.160156 181.449219 161.628906 181.851562 160.855469 C 182.019531 160.523438 182.117188 160.152344 182.117188 159.753906 C 182.117188 158.429688 181.039062 157.351562 179.710938 157.351562 L 152.285156 157.351562 C 150.957031 157.351562 149.878906 158.429688 149.878906 159.753906 L 149.878906 208.375 C 149.878906 209.703125 150.957031 210.777344 152.285156 210.777344 L 224.03125 210.777344 C 225.359375 210.777344 226.4375 209.703125 226.4375 208.375 L 226.4375 182.527344 C 226.4375 181.199219 225.359375 180.121094 224.03125 180.121094 " fill-opacity="1" fill-rule="nonzero"/><path fill="#000000" d="M 211.703125 228.6875 L 211.183594 226.277344 L 225.035156 226.277344 L 226.070312 228.6875 Z M 209.585938 218.855469 L 221.835938 218.855469 L 222.960938 221.46875 L 210.148438 221.46875 Z M 190.554688 228.6875 L 190.554688 226.277344 L 206.265625 226.277344 L 206.785156 228.6875 Z M 185.746094 221.46875 L 171.074219 221.46875 L 171.636719 218.855469 L 185.746094 218.855469 Z M 185.746094 228.6875 L 169.519531 228.6875 L 170.039062 226.277344 L 185.746094 226.277344 Z M 166.15625 221.46875 L 152.917969 221.46875 L 154.042969 218.855469 L 166.71875 218.855469 Z M 164.597656 228.6875 L 149.804688 228.6875 L 150.84375 226.277344 L 165.117188 226.277344 Z M 190.554688 218.855469 L 204.664062 218.855469 L 205.230469 221.46875 L 190.554688 221.46875 Z M 223.417969 214.046875 L 152.460938 214.046875 C 151.5 214.046875 150.632812 214.617188 150.25 215.5 L 143.945312 230.140625 C 143.625 230.882812 143.699219 231.738281 144.144531 232.414062 C 144.589844 233.089844 145.34375 233.5 146.152344 233.5 L 229.726562 233.5 C 229.726562 233.5 229.730469 233.5 229.730469 233.5 C 231.058594 233.5 232.136719 232.421875 232.136719 231.09375 C 232.136719 230.699219 232.039062 230.328125 231.875 230 L 225.625 215.5 C 225.246094 214.617188 224.378906 214.046875 223.417969 214.046875 " fill-opacity="1" fill-rule="nonzero"/><g clip-path="url(#2096fb0955)"><path fill="#000000" d="M 241.527344 155.472656 C 241.515625 155.472656 241.5 155.472656 241.488281 155.472656 C 241.34375 155.472656 241.203125 155.488281 241.066406 155.511719 C 240.839844 155.441406 240.597656 155.402344 240.347656 155.402344 C 240.148438 155.402344 239.960938 155.429688 239.773438 155.476562 C 239.65625 155.457031 239.535156 155.441406 239.40625 155.4375 L 226.03125 155.214844 L 213.351562 155.003906 L 203.910156 146.527344 L 181.023438 125.972656 L 224.460938 126.703125 L 256.777344 155.726562 Z M 240.46875 177.859375 C 239.972656 177.859375 239.566406 177.453125 239.566406 176.957031 C 239.566406 176.460938 239.972656 176.058594 240.46875 176.058594 C 240.964844 176.058594 241.367188 176.460938 241.367188 176.957031 C 241.367188 177.453125 240.964844 177.859375 240.46875 177.859375 Z M 231.816406 167.519531 C 231.792969 167.566406 231.773438 167.613281 231.753906 167.660156 C 231.742188 167.6875 231.734375 167.71875 231.722656 167.746094 C 231.710938 167.773438 231.699219 167.800781 231.683594 167.832031 C 231.640625 167.941406 231.585938 168.046875 231.535156 168.152344 C 231.046875 169.15625 230.292969 170.039062 229.292969 170.777344 C 228.753906 171.171875 228.136719 171.535156 227.449219 171.855469 L 227.28125 171.929688 C 224.839844 173.019531 221.699219 173.515625 218.207031 173.359375 C 217.792969 173.339844 217.375 173.3125 216.957031 173.273438 C 215.546875 173.152344 214.105469 172.929688 212.660156 172.609375 C 211.492188 172.347656 210.296875 172.019531 209.113281 171.628906 C 208.421875 171.398438 207.75 171.15625 207.109375 170.90625 C 206.953125 170.847656 206.800781 170.78125 206.648438 170.71875 L 206.496094 170.65625 C 204.625 169.882812 202.839844 168.976562 201.199219 167.964844 C 199.355469 166.828125 197.691406 165.566406 196.25 164.210938 C 194.589844 162.652344 193.253906 160.984375 192.320312 159.328125 C 192.050781 158.847656 191.8125 158.367188 191.613281 157.890625 C 191.492188 157.601562 191.378906 157.292969 191.273438 156.980469 C 191.15625 156.613281 191.058594 156.261719 190.988281 155.933594 C 190.75 154.824219 190.738281 153.765625 190.945312 152.785156 C 190.988281 152.582031 191.03125 152.410156 191.074219 152.257812 C 191.125 152.089844 191.179688 151.9375 191.234375 151.789062 C 191.238281 151.78125 191.242188 151.773438 191.246094 151.769531 L 194.191406 144.261719 L 210.808594 159.183594 C 211.238281 159.570312 211.792969 159.789062 212.375 159.796875 L 234.703125 160.171875 Z M 264.78125 156.449219 L 227.003906 122.523438 C 226.574219 122.136719 226.019531 121.917969 225.4375 121.90625 L 174.664062 121.058594 C 173.660156 121.042969 172.753906 121.648438 172.386719 122.582031 C 172.019531 123.515625 172.273438 124.582031 173.019531 125.25 L 190.390625 140.851562 C 190.335938 140.949219 190.285156 141.046875 190.242188 141.15625 L 186.769531 150 C 186.769531 150.007812 186.769531 150.007812 186.769531 150.011719 C 186.765625 150.015625 186.761719 150.023438 186.761719 150.027344 C 186.65625 150.292969 186.558594 150.578125 186.472656 150.867188 C 186.386719 151.148438 186.308594 151.453125 186.238281 151.792969 C 185.964844 153.082031 185.921875 154.421875 186.09375 155.800781 C 186.140625 156.175781 186.203125 156.554688 186.285156 156.9375 C 186.390625 157.433594 186.53125 157.953125 186.703125 158.476562 C 186.847656 158.917969 187.007812 159.347656 187.179688 159.757812 C 187.992188 161.679688 189.21875 163.613281 190.785156 165.445312 C 191.449219 166.222656 192.175781 166.980469 192.957031 167.714844 C 194.632812 169.292969 196.558594 170.753906 198.675781 172.0625 C 200.539062 173.207031 202.550781 174.230469 204.660156 175.101562 L 204.804688 175.160156 C 204.984375 175.238281 205.167969 175.3125 205.351562 175.382812 C 206.074219 175.667969 206.832031 175.941406 207.605469 176.195312 C 208.941406 176.636719 210.292969 177.011719 211.621094 177.304688 C 212.761719 177.558594 213.902344 177.757812 215.035156 177.902344 C 216.03125 178.03125 217.015625 178.121094 217.988281 178.164062 C 218.476562 178.1875 218.960938 178.195312 219.4375 178.195312 C 221.308594 178.195312 223.105469 178.03125 224.777344 177.703125 C 226.386719 177.386719 227.886719 176.925781 229.238281 176.324219 L 229.292969 176.296875 C 229.355469 176.269531 229.417969 176.242188 229.480469 176.214844 C 230.453125 175.761719 231.351562 175.234375 232.148438 174.648438 C 233.777344 173.441406 235.027344 171.964844 235.859375 170.257812 C 235.929688 170.109375 236.019531 169.925781 236.109375 169.71875 L 236.117188 169.699219 C 236.15625 169.617188 236.191406 169.539062 236.222656 169.457031 C 236.226562 169.445312 236.230469 169.4375 236.234375 169.425781 L 237.945312 165.074219 L 237.945312 171.835938 C 236.058594 172.769531 234.757812 174.714844 234.757812 176.957031 C 234.757812 179.199219 236.058594 181.144531 237.945312 182.078125 L 237.945312 189.382812 C 237.945312 190.710938 239.019531 191.785156 240.347656 191.785156 C 241.675781 191.785156 242.753906 190.710938 242.753906 189.382812 L 242.753906 182.191406 C 244.765625 181.304688 246.175781 179.292969 246.175781 176.957031 C 246.175781 174.621094 244.765625 172.609375 242.753906 171.726562 L 242.753906 160.304688 L 263.136719 160.644531 C 263.148438 160.644531 263.164062 160.644531 263.175781 160.644531 C 264.164062 160.644531 265.050781 160.039062 265.414062 159.117188 C 265.78125 158.183594 265.527344 157.117188 264.78125 156.449219 " fill-opacity="1" fill-rule="nonzero"/></g><g fill="#000000" fill-opacity="1"><g transform="translate(114.546758, 152.104386)"><g><path d="M -17.296875 -15.1875 C -17.171875 -15.414062 -17.039062 -15.640625 -16.90625 -15.859375 C -16.78125 -16.078125 -16.660156 -16.289062 -16.546875 -16.5 C -16.429688 -16.71875 -16.316406 -16.929688 -16.203125 -17.140625 C -16.085938 -17.359375 -15.957031 -17.570312 -15.8125 -17.78125 C -15.332031 -18.59375 -14.738281 -19.515625 -14.03125 -20.546875 C -12.894531 -22.191406 -11.648438 -23.445312 -10.296875 -24.3125 C -8.929688 -25.164062 -7.5 -25.6875 -6 -25.875 C -4.550781 -26.039062 -3.085938 -25.898438 -1.609375 -25.453125 C -0.140625 -25.015625 1.257812 -24.335938 2.59375 -23.421875 C 3.925781 -22.503906 5.066406 -21.441406 6.015625 -20.234375 C 6.191406 -19.972656 6.363281 -19.710938 6.53125 -19.453125 C 6.707031 -19.203125 6.863281 -18.945312 7 -18.6875 C 7.144531 -18.425781 7.273438 -18.15625 7.390625 -17.875 C 7.503906 -17.601562 7.613281 -17.328125 7.71875 -17.046875 C 7.832031 -16.773438 7.925781 -16.488281 8 -16.1875 C 8.351562 -14.726562 8.367188 -13.1875 8.046875 -11.5625 C 7.703125 -9.945312 6.941406 -8.28125 5.765625 -6.5625 C 5.640625 -6.375 5.523438 -6.203125 5.421875 -6.046875 C 5.316406 -5.898438 5.207031 -5.742188 5.09375 -5.578125 C 4.988281 -5.421875 4.882812 -5.273438 4.78125 -5.140625 C 4.6875 -5.015625 4.59375 -4.878906 4.5 -4.734375 C 4.40625 -4.597656 4.300781 -4.460938 4.1875 -4.328125 C 4.082031 -4.191406 3.976562 -4.070312 3.875 -3.96875 C 3.332031 -3.25 2.765625 -2.539062 2.171875 -1.84375 L 1.6875 -1.34375 L 1.125 -1.734375 L -17.03125 -14.1875 L -17.609375 -14.578125 Z M -10.625 -18.109375 C -10.789062 -17.859375 -10.945312 -17.617188 -11.09375 -17.390625 C -11.238281 -17.160156 -11.375 -16.953125 -11.5 -16.765625 C -11.625 -16.546875 -11.738281 -16.34375 -11.84375 -16.15625 L 1.09375 -7.296875 C 1.132812 -7.347656 1.164062 -7.394531 1.1875 -7.4375 C 1.21875 -7.488281 1.253906 -7.53125 1.296875 -7.5625 C 1.335938 -7.59375 1.367188 -7.625 1.390625 -7.65625 C 1.421875 -7.695312 1.457031 -7.742188 1.5 -7.796875 C 1.78125 -8.179688 2.0625 -8.585938 2.34375 -9.015625 C 2.5 -9.234375 2.640625 -9.453125 2.765625 -9.671875 C 2.890625 -9.890625 3 -10.097656 3.09375 -10.296875 C 3.1875 -10.503906 3.28125 -10.710938 3.375 -10.921875 C 3.476562 -11.140625 3.554688 -11.347656 3.609375 -11.546875 C 3.671875 -11.742188 3.710938 -11.929688 3.734375 -12.109375 C 3.960938 -13.097656 3.960938 -14.023438 3.734375 -14.890625 C 3.503906 -15.765625 3.070312 -16.585938 2.4375 -17.359375 C 1.78125 -18.160156 0.957031 -18.898438 -0.03125 -19.578125 C -0.90625 -20.171875 -1.820312 -20.625 -2.78125 -20.9375 C -3.726562 -21.226562 -4.671875 -21.347656 -5.609375 -21.296875 C -6.066406 -21.253906 -6.515625 -21.160156 -6.953125 -21.015625 C -7.398438 -20.878906 -7.847656 -20.675781 -8.296875 -20.40625 C -9.148438 -19.894531 -9.925781 -19.128906 -10.625 -18.109375 Z M -10.625 -18.109375 "/></g></g></g><g fill="#000000" fill-opacity="1"><g transform="translate(129.362048, 131.680617)"><g><path d="M 12.078125 -8.96875 L 6.125 -11.875 C 4.800781 -12.539062 3.609375 -12.789062 2.546875 -12.625 C 2.222656 -12.570312 1.894531 -12.484375 1.5625 -12.359375 C 1.226562 -12.242188 0.882812 -12.082031 0.53125 -11.875 C 0.1875 -11.675781 -0.171875 -11.4375 -0.546875 -11.15625 L 5.140625 -4.203125 L 5.640625 -3.59375 L 5.015625 -3.09375 L 2.703125 -1.1875 L 2.09375 -0.703125 L 1.59375 -1.3125 L -12.390625 -18.390625 L -12.84375 -18.953125 L -12.328125 -19.453125 C -11.910156 -19.847656 -11.503906 -20.226562 -11.109375 -20.59375 C -10.722656 -20.96875 -10.34375 -21.332031 -9.96875 -21.6875 C -9.226562 -22.363281 -8.394531 -23.082031 -7.46875 -23.84375 C -6.375 -24.738281 -5.3125 -25.421875 -4.28125 -25.890625 C -3.21875 -26.359375 -2.207031 -26.59375 -1.25 -26.59375 C -0.269531 -26.625 0.632812 -26.445312 1.46875 -26.0625 C 2.300781 -25.675781 3.035156 -25.101562 3.671875 -24.34375 C 4.773438 -22.988281 5.257812 -21.546875 5.125 -20.015625 C 5.050781 -19.035156 4.738281 -18.03125 4.1875 -17 C 4.40625 -17.007812 4.601562 -17.007812 4.78125 -17 C 4.96875 -16.988281 5.164062 -16.953125 5.375 -16.890625 C 5.632812 -16.867188 5.898438 -16.828125 6.171875 -16.765625 C 6.441406 -16.710938 6.734375 -16.628906 7.046875 -16.515625 C 7.597656 -16.328125 8.242188 -16.054688 8.984375 -15.703125 L 14.109375 -13.21875 L 14.8125 -12.859375 L 14.484375 -12.140625 L 13.15625 -9.328125 L 12.796875 -8.640625 Z M -4.859375 -20.65625 C -5.128906 -20.4375 -5.390625 -20.222656 -5.640625 -20.015625 C -5.890625 -19.816406 -6.109375 -19.625 -6.296875 -19.4375 C -6.359375 -19.382812 -6.425781 -19.316406 -6.5 -19.234375 C -6.582031 -19.160156 -6.65625 -19.097656 -6.71875 -19.046875 C -6.78125 -18.992188 -6.835938 -18.945312 -6.890625 -18.90625 L -3.15625 -14.328125 L -1.078125 -16.03125 C -0.0234375 -16.882812 0.632812 -17.796875 0.90625 -18.765625 C 1.125 -19.628906 0.921875 -20.441406 0.296875 -21.203125 C 0.0351562 -21.515625 -0.253906 -21.75 -0.578125 -21.90625 C -0.910156 -22.0625 -1.300781 -22.128906 -1.75 -22.109375 C -2.195312 -22.085938 -2.679688 -21.957031 -3.203125 -21.71875 C -3.722656 -21.488281 -4.273438 -21.132812 -4.859375 -20.65625 Z M -4.859375 -20.65625 "/></g></g></g><g fill="#000000" fill-opacity="1"><g transform="translate(148.327475, 117.467398)"><g><path d="M 0.859375 -2.375 C 0.734375 -2.625 0.640625 -2.867188 0.578125 -3.109375 C 0.515625 -3.347656 0.484375 -3.597656 0.484375 -3.859375 C 0.484375 -4.117188 0.53125 -4.363281 0.625 -4.59375 C 0.832031 -5.3125 1.34375 -5.878906 2.15625 -6.296875 C 2.820312 -6.628906 3.550781 -6.675781 4.34375 -6.4375 C 5.132812 -6.1875 5.707031 -5.703125 6.0625 -4.984375 C 6.445312 -4.210938 6.503906 -3.460938 6.234375 -2.734375 C 5.992188 -2.003906 5.507812 -1.457031 4.78125 -1.09375 C 4.082031 -0.738281 3.34375 -0.6875 2.5625 -0.9375 C 1.78125 -1.195312 1.210938 -1.675781 0.859375 -2.375 Z M 0.859375 -2.375 "/></g></g></g><g fill="#000000" fill-opacity="1"><g transform="translate(161.191529, 111.43886)"><g/></g></g><g fill="#000000" fill-opacity="1"><g transform="translate(174.35855, 107.327754)"><g><path d="M 19.109375 -2.8125 L 17.1875 -0.484375 L 16.671875 0.125 L 16.0625 -0.359375 L 5.953125 -8.796875 L 6.625 -0.546875 L 6.6875 0.25 L 5.890625 0.3125 L 2.890625 0.5625 L 2.125 0.625 L 2.0625 -0.171875 L 0.25 -22.234375 L 0.1875 -23.015625 L 0.953125 -23.078125 L 3.953125 -23.328125 L 4.75 -23.390625 L 4.8125 -22.609375 L 5.484375 -14.578125 L 12.796875 -23.890625 L 13.296875 -24.515625 L 13.90625 -24.015625 L 16.078125 -22.328125 L 16.71875 -21.828125 L 16.203125 -21.21875 L 8.796875 -12.1875 L 18.984375 -3.890625 L 19.59375 -3.40625 Z M 19.109375 -2.8125 "/></g></g></g><g fill="#000000" fill-opacity="1"><g transform="translate(196.999062, 105.747284)"><g><path d="M 17.53125 -5.859375 L 8.390625 -7.765625 L 6.5 1.34375 L 6.34375 2.125 L 5.5625 1.96875 L 2.625 1.359375 L 1.859375 1.203125 L 2.015625 0.421875 L 6.515625 -21.25 L 6.671875 -22.015625 L 7.4375 -21.859375 L 10.375 -21.25 L 11.15625 -21.09375 L 11 -20.328125 L 9.234375 -11.84375 L 18.375 -9.9375 L 20.140625 -18.421875 L 20.296875 -19.1875 L 21.078125 -19.03125 L 24.015625 -18.421875 L 24.78125 -18.25 L 24.625 -17.484375 L 20.125 4.1875 L 19.96875 4.96875 L 19.203125 4.796875 L 16.265625 4.1875 L 15.484375 4.03125 L 15.640625 3.25 Z M 17.53125 -5.859375 "/></g></g></g><g fill="#000000" fill-opacity="1"><g transform="translate(222.476006, 111.697758)"><g><path d="M 0.1875 -1.125 L 18.046875 -15.65625 L 18.46875 -16.015625 L 18.953125 -15.75 L 21.828125 -14.171875 L 22.296875 -13.90625 L 22.21875 -13.359375 L 19.40625 9.453125 L 19.328125 10.234375 L 18.546875 10.109375 L 15.609375 9.78125 L 14.796875 9.6875 L 14.9375 8.875 L 15.734375 2.6875 L 7.6875 -1.734375 L 2.9375 2.21875 L 2.3125 2.765625 L 1.828125 2.125 L 0.09375 -0.03125 L -0.4375 -0.640625 Z M 11.078125 -4.5625 L 16.296875 -1.6875 L 17.390625 -9.828125 Z M 11.078125 -4.5625 "/></g></g></g><g fill="#000000" fill-opacity="1"><g transform="translate(243.91566, 123.99245)"><g><path d="M 15.359375 -5.921875 L 4.515625 4.640625 L 3.9375 5.203125 L 3.390625 4.640625 L 1.40625 2.59375 L 0.859375 2.046875 L 1.4375 1.484375 L 17.296875 -13.953125 L 17.859375 -14.5 L 18.40625 -13.953125 L 21.1875 -11.09375 L 21.515625 -10.75 L 21.375 -10.3125 L 15.96875 6.515625 L 26.890625 -4.109375 L 27.453125 -4.65625 L 28.015625 -4.078125 L 29.984375 -2.046875 L 30.53125 -1.484375 L 29.96875 -0.9375 L 14.109375 14.5 L 13.53125 15.0625 L 12.984375 14.5 L 11.515625 12.984375 L 10.25 11.6875 L 9.921875 11.34375 L 10.078125 10.890625 Z M 15.359375 -5.921875 "/></g></g></g><g fill="#000000" fill-opacity="1"><g transform="translate(261.385914, 143.694752)"><g/></g></g><g fill="#000000" fill-opacity="1"><g transform="translate(86.122537, 205.720589)"><g><path d="M 8.984375 -1.625 C 10.335938 -1.96875 11.65625 -2.097656 12.9375 -2.015625 C 14.226562 -1.921875 15.410156 -1.59375 16.484375 -1.03125 C 17.578125 -0.5 18.503906 0.257812 19.265625 1.25 C 19.660156 1.738281 20.003906 2.28125 20.296875 2.875 C 20.585938 3.46875 20.820312 4.113281 21 4.8125 C 21.175781 5.5 21.28125 6.171875 21.3125 6.828125 C 21.34375 7.484375 21.289062 8.125 21.15625 8.75 C 21.050781 9.375 20.882812 9.960938 20.65625 10.515625 C 20.425781 11.078125 20.140625 11.609375 19.796875 12.109375 C 19.109375 13.109375 18.234375 13.96875 17.171875 14.6875 C 16.109375 15.382812 14.910156 15.90625 13.578125 16.25 C 12.253906 16.59375 10.953125 16.710938 9.671875 16.609375 C 9.253906 16.566406 8.835938 16.503906 8.421875 16.421875 C 8.003906 16.335938 7.601562 16.226562 7.21875 16.09375 C 6.84375 15.96875 6.472656 15.820312 6.109375 15.65625 C 5.554688 15.382812 5.039062 15.050781 4.5625 14.65625 C 4.09375 14.269531 3.660156 13.835938 3.265625 13.359375 C 2.472656 12.390625 1.894531 11.203125 1.53125 9.796875 C 1.164062 8.390625 1.097656 7.0625 1.328125 5.8125 C 1.390625 5.519531 1.460938 5.226562 1.546875 4.9375 C 1.640625 4.644531 1.742188 4.359375 1.859375 4.078125 C 1.972656 3.796875 2.101562 3.519531 2.25 3.25 C 2.40625 2.976562 2.566406 2.726562 2.734375 2.5 C 3.421875 1.488281 4.304688 0.628906 5.390625 -0.078125 C 6.460938 -0.765625 7.660156 -1.28125 8.984375 -1.625 Z M 9.9375 2.0625 C 9.519531 2.164062 9.113281 2.300781 8.71875 2.46875 C 8.320312 2.632812 7.9375 2.828125 7.5625 3.046875 C 7.207031 3.273438 6.878906 3.519531 6.578125 3.78125 C 6.273438 4.039062 6.003906 4.320312 5.765625 4.625 C 5.679688 4.726562 5.609375 4.828125 5.546875 4.921875 C 5.492188 5.023438 5.429688 5.128906 5.359375 5.234375 C 5.296875 5.347656 5.234375 5.457031 5.171875 5.5625 C 5.117188 5.675781 5.070312 5.796875 5.03125 5.921875 C 4.988281 6.046875 4.945312 6.164062 4.90625 6.28125 C 4.875 6.394531 4.832031 6.515625 4.78125 6.640625 C 4.613281 7.359375 4.632812 8.128906 4.84375 8.953125 C 4.914062 9.242188 5.003906 9.519531 5.109375 9.78125 C 5.222656 10.050781 5.34375 10.289062 5.46875 10.5 C 5.59375 10.71875 5.734375 10.914062 5.890625 11.09375 C 6.378906 11.65625 6.957031 12.082031 7.625 12.375 C 7.851562 12.488281 8.082031 12.578125 8.3125 12.640625 C 8.550781 12.703125 8.804688 12.75 9.078125 12.78125 C 9.347656 12.820312 9.617188 12.851562 9.890625 12.875 C 10.773438 12.894531 11.6875 12.785156 12.625 12.546875 C 13.457031 12.335938 14.234375 12.003906 14.953125 11.546875 C 15.648438 11.128906 16.242188 10.601562 16.734375 9.96875 C 17.203125 9.363281 17.535156 8.703125 17.734375 7.984375 C 17.898438 7.253906 17.878906 6.476562 17.671875 5.65625 C 17.617188 5.457031 17.554688 5.257812 17.484375 5.0625 C 17.421875 4.863281 17.34375 4.675781 17.25 4.5 C 17.164062 4.320312 17.070312 4.15625 16.96875 4 C 16.863281 3.851562 16.75 3.71875 16.625 3.59375 C 16.394531 3.300781 16.132812 3.046875 15.84375 2.828125 C 15.5625 2.609375 15.25 2.425781 14.90625 2.28125 C 14.21875 1.988281 13.457031 1.804688 12.625 1.734375 C 11.757812 1.710938 10.863281 1.820312 9.9375 2.0625 Z M 9.9375 2.0625 "/></g></g></g><g fill="#000000" fill-opacity="1"><g transform="translate(93.813828, 231.603765)"><g><path d="M 13.453125 -1.359375 L 2.578125 4.65625 L 2 4.96875 L 1.6875 4.40625 L 0.5625 2.359375 L 0.234375 1.78125 L 0.8125 1.46875 L 16.71875 -7.328125 L 17.28125 -7.640625 L 17.609375 -7.0625 L 19.1875 -4.203125 L 19.375 -3.859375 L 19.171875 -3.546875 L 11.234375 8.625 L 22.1875 2.5625 L 22.75 2.25 L 23.078125 2.828125 L 24.203125 4.859375 L 24.515625 5.4375 L 23.953125 5.75 L 8.046875 14.546875 L 7.46875 14.859375 L 7.15625 14.28125 L 6.3125 12.765625 L 5.59375 11.46875 L 5.40625 11.125 L 5.625 10.8125 Z M 13.453125 -1.359375 "/></g></g></g><g fill="#000000" fill-opacity="1"><g transform="translate(106.938302, 253.17367)"><g><path d="M 8.234375 10.265625 L 1.078125 2.1875 L 0.640625 1.703125 L 1.125 1.265625 L 14.71875 -10.796875 L 15.203125 -11.234375 L 15.640625 -10.75 L 17.265625 -8.90625 L 17.703125 -8.421875 L 17.21875 -7.984375 L 5.765625 2.1875 L 10.859375 7.9375 L 11.296875 8.4375 L 10.796875 8.859375 L 9.15625 10.328125 L 8.671875 10.765625 Z M 8.234375 10.265625 "/></g></g></g><g fill="#000000" fill-opacity="1"><g transform="translate(120.601085, 267.416202)"><g><path d="M 1.3125 1.0625 L 12.78125 -13.03125 L 13.203125 -13.53125 L 13.703125 -13.109375 L 15.609375 -11.5625 L 16.125 -11.15625 L 15.703125 -10.65625 L 4.234375 3.4375 L 3.8125 3.953125 L 3.296875 3.546875 L 1.390625 2 L 0.890625 1.578125 Z M 1.3125 1.0625 "/></g></g></g><g fill="#000000" fill-opacity="1"><g transform="translate(131.427001, 276.092876)"><g><path d="M 10.59375 -8.40625 L 4.6875 2.53125 L 4.375 3.109375 L 3.796875 2.796875 L 1.75 1.6875 L 1.171875 1.375 L 1.484375 0.796875 L 10.125 -15.1875 L 10.4375 -15.765625 L 11.015625 -15.453125 L 13.890625 -13.890625 L 14.234375 -13.703125 L 14.21875 -13.328125 L 14.109375 1.203125 L 20.0625 -9.8125 L 20.375 -10.390625 L 20.953125 -10.078125 L 23 -8.96875 L 23.578125 -8.65625 L 23.265625 -8.078125 L 14.625 7.90625 L 14.3125 8.484375 L 13.734375 8.171875 L 12.203125 7.34375 L 10.90625 6.640625 L 10.5625 6.453125 L 10.546875 6.0625 Z M 10.59375 -8.40625 "/></g></g></g><g fill="#000000" fill-opacity="1"><g transform="translate(154.150265, 287.222948)"><g><path d="M 7.265625 -17.53125 L 17.765625 -14.625 L 18.390625 -14.46875 L 18.21875 -13.828125 L 17.65625 -11.78125 L 17.484375 -11.15625 L 16.859375 -11.3125 L 9.34375 -13.390625 L 8.21875 -9.3125 L 14.609375 -7.546875 L 15.234375 -7.390625 L 15.0625 -6.765625 L 14.515625 -4.765625 L 14.34375 -4.140625 L 13.71875 -4.296875 L 7.328125 -6.0625 L 5.984375 -1.234375 L 13.5 0.84375 L 14.125 1 L 13.953125 1.640625 L 13.390625 3.6875 L 13.21875 4.3125 L 12.59375 4.15625 L 2.09375 1.25 L 1.453125 1.078125 L 1.625 0.453125 L 6.453125 -17.0625 L 6.625 -17.703125 Z M 7.265625 -17.53125 "/></g></g></g><g fill="#000000" fill-opacity="1"><g transform="translate(174.55548, 291.978059)"><g/></g></g><g fill="#000000" fill-opacity="1"><g transform="translate(188.919197, 293.143943)"><g><path d="M 3.734375 -9.421875 C 3.765625 -9.078125 3.804688 -8.75 3.859375 -8.4375 C 3.910156 -8.132812 3.972656 -7.835938 4.046875 -7.546875 C 4.128906 -7.253906 4.226562 -6.972656 4.34375 -6.703125 C 4.664062 -5.898438 5.085938 -5.238281 5.609375 -4.71875 C 5.773438 -4.53125 5.945312 -4.359375 6.125 -4.203125 C 6.300781 -4.054688 6.488281 -3.925781 6.6875 -3.8125 C 6.894531 -3.695312 7.101562 -3.597656 7.3125 -3.515625 C 7.9375 -3.273438 8.625 -3.1875 9.375 -3.25 C 10.15625 -3.3125 10.816406 -3.441406 11.359375 -3.640625 C 11.929688 -3.867188 12.46875 -4.171875 12.96875 -4.546875 L 13.609375 -5 L 13.9375 -4.28125 L 14.84375 -2.3125 L 15.09375 -1.78125 L 14.625 -1.5 C 13.957031 -1.070312 13.207031 -0.695312 12.375 -0.375 C 11.507812 -0.0625 10.507812 0.132812 9.375 0.21875 C 8.101562 0.320312 6.914062 0.1875 5.8125 -0.1875 C 4.707031 -0.570312 3.726562 -1.175781 2.875 -2 C 2.0625 -2.789062 1.394531 -3.785156 0.875 -4.984375 C 0.375 -6.179688 0.0664062 -7.53125 -0.046875 -9.03125 C -0.160156 -10.476562 -0.0625 -11.828125 0.25 -13.078125 C 0.5625 -14.359375 1.070312 -15.476562 1.78125 -16.4375 C 2.507812 -17.414062 3.40625 -18.203125 4.46875 -18.796875 C 5 -19.078125 5.566406 -19.304688 6.171875 -19.484375 C 6.785156 -19.660156 7.429688 -19.773438 8.109375 -19.828125 C 9.035156 -19.898438 9.882812 -19.878906 10.65625 -19.765625 C 11.394531 -19.648438 12.113281 -19.460938 12.8125 -19.203125 L 13.359375 -18.984375 L 13.21875 -18.421875 L 12.640625 -16.28125 L 12.421875 -15.578125 L 11.75 -15.84375 C 11.238281 -16.0625 10.71875 -16.222656 10.1875 -16.328125 C 10.007812 -16.367188 9.828125 -16.394531 9.640625 -16.40625 C 9.460938 -16.414062 9.265625 -16.421875 9.046875 -16.421875 C 8.828125 -16.421875 8.597656 -16.410156 8.359375 -16.390625 C 7.992188 -16.359375 7.640625 -16.296875 7.296875 -16.203125 C 6.960938 -16.109375 6.644531 -15.976562 6.34375 -15.8125 C 6.050781 -15.644531 5.773438 -15.445312 5.515625 -15.21875 C 5.265625 -14.988281 5.035156 -14.726562 4.828125 -14.4375 C 4.628906 -14.144531 4.453125 -13.820312 4.296875 -13.46875 C 4.140625 -13.125 4.007812 -12.738281 3.90625 -12.3125 C 3.707031 -11.457031 3.648438 -10.492188 3.734375 -9.421875 Z M 3.734375 -9.421875 "/></g></g></g><g fill="#000000" fill-opacity="1"><g transform="translate(211.025623, 290.597475)"><g><path d="M 12.796875 -3.046875 L 2.4375 -0.03125 L 1.8125 0.15625 L 1.625 -0.46875 L -3.453125 -17.921875 L -3.640625 -18.546875 L -3.015625 -18.734375 L -0.65625 -19.421875 L -0.03125 -19.609375 L 0.15625 -18.984375 L 4.4375 -4.28125 L 11.8125 -6.421875 L 12.453125 -6.609375 L 12.640625 -5.96875 L 13.25 -3.859375 L 13.4375 -3.234375 Z M 12.796875 -3.046875 "/></g></g></g><g fill="#000000" fill-opacity="1"><g transform="translate(230.272717, 284.443224)"><g><path d="M -0.703125 -0.625 L -2.8125 -19.421875 L -2.875 -19.859375 L -2.5 -20.078125 L -0.125 -21.359375 L 0.265625 -21.578125 L 0.609375 -21.296875 L 15.140625 -9.25 L 15.625 -8.828125 L 15.234375 -8.34375 L 13.65625 -6.46875 L 13.265625 -5.96875 L 12.765625 -6.390625 L 8.828125 -9.6875 L 2.21875 -6.09375 L 2.828125 -1.03125 L 2.9375 -0.390625 L 2.28125 -0.3125 L 0.046875 -0.078125 L -0.640625 0.015625 Z M 1.75 -9.65625 L 6.0625 -12.015625 L 0.90625 -16.359375 Z M 1.75 -9.65625 "/></g></g></g><g fill="#000000" fill-opacity="1"><g transform="translate(251.175859, 272.012735)"><g><path d="M -0.859375 -4.703125 C -0.472656 -4.710938 -0.0976562 -4.753906 0.265625 -4.828125 C 0.628906 -4.898438 1 -5 1.375 -5.125 C 2.082031 -5.363281 2.796875 -5.796875 3.515625 -6.421875 C 3.941406 -6.804688 4.273438 -7.175781 4.515625 -7.53125 C 4.765625 -7.894531 4.929688 -8.253906 5.015625 -8.609375 C 5.171875 -9.265625 5.035156 -9.84375 4.609375 -10.34375 C 4.566406 -10.375 4.523438 -10.410156 4.484375 -10.453125 C 4.441406 -10.503906 4.398438 -10.546875 4.359375 -10.578125 C 4.328125 -10.617188 4.285156 -10.660156 4.234375 -10.703125 C 4.191406 -10.742188 4.148438 -10.773438 4.109375 -10.796875 C 4.066406 -10.816406 4.019531 -10.835938 3.96875 -10.859375 C 3.789062 -10.972656 3.546875 -11.035156 3.234375 -11.046875 C 2.878906 -11.046875 2.429688 -10.984375 1.890625 -10.859375 C 1.304688 -10.722656 0.597656 -10.5 -0.234375 -10.1875 C -1.203125 -9.820312 -2.066406 -9.566406 -2.828125 -9.421875 C -3.609375 -9.234375 -4.316406 -9.164062 -4.953125 -9.21875 C -5.191406 -9.25 -5.410156 -9.289062 -5.609375 -9.34375 C -5.816406 -9.394531 -6.023438 -9.457031 -6.234375 -9.53125 C -6.441406 -9.601562 -6.632812 -9.6875 -6.8125 -9.78125 C -7.34375 -10.09375 -7.847656 -10.523438 -8.328125 -11.078125 C -8.816406 -11.640625 -9.160156 -12.269531 -9.359375 -12.96875 C -9.566406 -13.664062 -9.597656 -14.394531 -9.453125 -15.15625 C -9.328125 -15.90625 -9.039062 -16.660156 -8.59375 -17.421875 C -8.132812 -18.171875 -7.503906 -18.894531 -6.703125 -19.59375 C -5.859375 -20.34375 -5.023438 -20.921875 -4.203125 -21.328125 C -3.390625 -21.753906 -2.515625 -22.101562 -1.578125 -22.375 L -0.984375 -22.515625 L -0.78125 -21.9375 L -0.078125 -19.75 L 0.15625 -19.046875 L -0.5625 -18.90625 C -0.78125 -18.882812 -0.992188 -18.835938 -1.203125 -18.765625 C -1.410156 -18.703125 -1.625 -18.628906 -1.84375 -18.546875 C -2.070312 -18.460938 -2.3125 -18.367188 -2.5625 -18.265625 C -3.238281 -17.929688 -3.878906 -17.503906 -4.484375 -16.984375 C -4.878906 -16.640625 -5.1875 -16.300781 -5.40625 -15.96875 C -5.632812 -15.644531 -5.789062 -15.332031 -5.875 -15.03125 C -5.925781 -14.820312 -5.953125 -14.640625 -5.953125 -14.484375 C -5.953125 -14.328125 -5.921875 -14.175781 -5.859375 -14.03125 C -5.796875 -13.894531 -5.707031 -13.765625 -5.59375 -13.640625 C -5.414062 -13.429688 -5.238281 -13.28125 -5.0625 -13.1875 C -4.914062 -13.09375 -4.703125 -13.046875 -4.421875 -13.046875 C -4.253906 -13.054688 -4.070312 -13.078125 -3.875 -13.109375 C -3.675781 -13.140625 -3.441406 -13.1875 -3.171875 -13.25 C -3.046875 -13.289062 -2.90625 -13.332031 -2.75 -13.375 C -2.601562 -13.414062 -2.445312 -13.460938 -2.28125 -13.515625 C -2.125 -13.578125 -1.945312 -13.644531 -1.75 -13.71875 C -1.5625 -13.789062 -1.359375 -13.863281 -1.140625 -13.9375 C -0.109375 -14.332031 0.804688 -14.613281 1.609375 -14.78125 C 1.785156 -14.8125 1.953125 -14.835938 2.109375 -14.859375 C 2.265625 -14.890625 2.421875 -14.910156 2.578125 -14.921875 C 2.742188 -14.929688 2.898438 -14.9375 3.046875 -14.9375 C 3.203125 -14.945312 3.347656 -14.953125 3.484375 -14.953125 C 3.628906 -14.953125 3.765625 -14.9375 3.890625 -14.90625 C 4.597656 -14.84375 5.234375 -14.65625 5.796875 -14.34375 C 6.335938 -14.03125 6.835938 -13.613281 7.296875 -13.09375 C 7.929688 -12.375 8.351562 -11.613281 8.5625 -10.8125 C 8.769531 -10.007812 8.800781 -9.203125 8.65625 -8.390625 C 8.519531 -7.566406 8.195312 -6.757812 7.6875 -5.96875 C 7.195312 -5.21875 6.566406 -4.503906 5.796875 -3.828125 C 4.796875 -2.953125 3.765625 -2.28125 2.703125 -1.8125 C 1.628906 -1.351562 0.609375 -1.097656 -0.359375 -1.046875 L -0.9375 -1 L -1.03125 -1.578125 L -1.46875 -3.96875 L -1.59375 -4.71875 Z M -0.859375 -4.703125 "/></g></g></g><g fill="#000000" fill-opacity="1"><g transform="translate(266.924276, 257.199281)"><g><path d="M -1.828125 -4.4375 C -1.453125 -4.519531 -1.09375 -4.632812 -0.75 -4.78125 C -0.40625 -4.925781 -0.0625 -5.097656 0.28125 -5.296875 C 0.925781 -5.679688 1.535156 -6.257812 2.109375 -7.03125 C 2.453125 -7.488281 2.707031 -7.914062 2.875 -8.3125 C 3.039062 -8.71875 3.125 -9.097656 3.125 -9.453125 C 3.132812 -10.140625 2.878906 -10.675781 2.359375 -11.0625 C 2.316406 -11.09375 2.269531 -11.125 2.21875 -11.15625 C 2.164062 -11.195312 2.113281 -11.226562 2.0625 -11.25 C 2.019531 -11.28125 1.96875 -11.3125 1.90625 -11.34375 C 1.851562 -11.375 1.804688 -11.394531 1.765625 -11.40625 C 1.722656 -11.414062 1.675781 -11.425781 1.625 -11.4375 C 1.425781 -11.519531 1.171875 -11.53125 0.859375 -11.46875 C 0.515625 -11.40625 0.0859375 -11.253906 -0.421875 -11.015625 C -0.953125 -10.753906 -1.597656 -10.390625 -2.359375 -9.921875 C -3.222656 -9.347656 -4.007812 -8.921875 -4.71875 -8.640625 C -5.445312 -8.285156 -6.128906 -8.070312 -6.765625 -8 C -6.992188 -7.976562 -7.21875 -7.96875 -7.4375 -7.96875 C -7.65625 -7.976562 -7.867188 -8 -8.078125 -8.03125 C -8.296875 -8.0625 -8.5 -8.109375 -8.6875 -8.171875 C -9.269531 -8.359375 -9.851562 -8.671875 -10.4375 -9.109375 C -11.039062 -9.554688 -11.515625 -10.097656 -11.859375 -10.734375 C -12.203125 -11.378906 -12.382812 -12.085938 -12.40625 -12.859375 C -12.425781 -13.609375 -12.300781 -14.410156 -12.03125 -15.265625 C -11.738281 -16.078125 -11.273438 -16.910156 -10.640625 -17.765625 C -9.960938 -18.671875 -9.265625 -19.410156 -8.546875 -19.984375 C -7.835938 -20.578125 -7.054688 -21.101562 -6.203125 -21.5625 L -5.65625 -21.8125 L -5.328125 -21.296875 L -4.1875 -19.296875 L -3.8125 -18.671875 L -4.484375 -18.375 C -4.679688 -18.3125 -4.875 -18.222656 -5.0625 -18.109375 C -5.257812 -18.003906 -5.457031 -17.882812 -5.65625 -17.75 C -5.863281 -17.613281 -6.078125 -17.476562 -6.296875 -17.34375 C -6.898438 -16.875 -7.441406 -16.320312 -7.921875 -15.6875 C -8.234375 -15.269531 -8.460938 -14.875 -8.609375 -14.5 C -8.765625 -14.125 -8.851562 -13.785156 -8.875 -13.484375 C -8.875 -13.273438 -8.859375 -13.085938 -8.828125 -12.921875 C -8.796875 -12.765625 -8.734375 -12.628906 -8.640625 -12.515625 C -8.554688 -12.398438 -8.445312 -12.289062 -8.3125 -12.1875 C -8.09375 -12.019531 -7.890625 -11.90625 -7.703125 -11.84375 C -7.535156 -11.78125 -7.316406 -11.78125 -7.046875 -11.84375 C -6.878906 -11.882812 -6.703125 -11.941406 -6.515625 -12.015625 C -6.328125 -12.085938 -6.101562 -12.179688 -5.84375 -12.296875 C -5.738281 -12.359375 -5.617188 -12.425781 -5.484375 -12.5 C -5.347656 -12.582031 -5.203125 -12.664062 -5.046875 -12.75 C -4.898438 -12.84375 -4.738281 -12.941406 -4.5625 -13.046875 C -4.382812 -13.160156 -4.203125 -13.273438 -4.015625 -13.390625 C -3.078125 -14.003906 -2.238281 -14.46875 -1.5 -14.78125 C -1.332031 -14.851562 -1.171875 -14.914062 -1.015625 -14.96875 C -0.867188 -15.03125 -0.71875 -15.082031 -0.5625 -15.125 C -0.414062 -15.164062 -0.265625 -15.207031 -0.109375 -15.25 C 0.0351562 -15.289062 0.175781 -15.328125 0.3125 -15.359375 C 0.445312 -15.390625 0.578125 -15.40625 0.703125 -15.40625 C 1.421875 -15.488281 2.082031 -15.429688 2.6875 -15.234375 C 3.289062 -15.035156 3.867188 -14.734375 4.421875 -14.328125 C 5.179688 -13.753906 5.742188 -13.09375 6.109375 -12.34375 C 6.492188 -11.601562 6.695312 -10.820312 6.71875 -10 C 6.75 -9.164062 6.597656 -8.3125 6.265625 -7.4375 C 5.953125 -6.601562 5.488281 -5.78125 4.875 -4.96875 C 4.082031 -3.894531 3.210938 -3.015625 2.265625 -2.328125 C 1.316406 -1.660156 0.375 -1.203125 -0.5625 -0.953125 L -1.140625 -0.796875 L -1.34375 -1.34375 L -2.265625 -3.578125 L -2.546875 -4.28125 Z M -1.828125 -4.4375 "/></g></g></g><g fill="#000000" fill-opacity="1"><g transform="translate(279.231246, 239.441444)"><g><path d="M -16.109375 -10.015625 L -11.546875 -19.921875 L -11.28125 -20.5 L -10.6875 -20.21875 L -8.75 -19.328125 L -8.171875 -19.0625 L -8.4375 -18.484375 L -11.703125 -11.40625 L -7.859375 -9.640625 L -5.078125 -15.65625 L -4.8125 -16.234375 L -4.21875 -15.953125 L -2.328125 -15.078125 L -1.75 -14.8125 L -2.015625 -14.234375 L -4.796875 -8.21875 L -0.25 -6.125 L 3.015625 -13.203125 L 3.28125 -13.78125 L 3.890625 -13.5 L 5.8125 -12.609375 L 6.40625 -12.328125 L 6.140625 -11.75 L 1.578125 -1.84375 L 1.296875 -1.25 L 0.703125 -1.53125 L -15.796875 -9.140625 L -16.390625 -9.421875 Z M -16.109375 -10.015625 "/></g></g></g><g fill="#000000" fill-opacity="1"><g transform="translate(287.509392, 219.850618)"><g><path d="M -3.453125 -3.328125 C -3.148438 -3.546875 -2.867188 -3.789062 -2.609375 -4.0625 C -2.359375 -4.34375 -2.113281 -4.644531 -1.875 -4.96875 C -1.4375 -5.570312 -1.113281 -6.34375 -0.90625 -7.28125 C -0.769531 -7.84375 -0.707031 -8.335938 -0.71875 -8.765625 C -0.726562 -9.191406 -0.804688 -9.578125 -0.953125 -9.921875 C -1.210938 -10.535156 -1.660156 -10.914062 -2.296875 -11.0625 C -2.347656 -11.070312 -2.40625 -11.082031 -2.46875 -11.09375 C -2.53125 -11.113281 -2.585938 -11.125 -2.640625 -11.125 C -2.703125 -11.132812 -2.757812 -11.144531 -2.8125 -11.15625 C -2.875 -11.164062 -2.925781 -11.164062 -2.96875 -11.15625 C -3.019531 -11.15625 -3.070312 -11.148438 -3.125 -11.140625 C -3.34375 -11.117188 -3.578125 -11.019531 -3.828125 -10.84375 C -4.128906 -10.644531 -4.457031 -10.335938 -4.8125 -9.921875 C -5.207031 -9.460938 -5.65625 -8.859375 -6.15625 -8.109375 C -6.726562 -7.253906 -7.273438 -6.546875 -7.796875 -5.984375 C -8.328125 -5.390625 -8.867188 -4.925781 -9.421875 -4.59375 C -9.617188 -4.476562 -9.816406 -4.378906 -10.015625 -4.296875 C -10.210938 -4.210938 -10.414062 -4.140625 -10.625 -4.078125 C -10.832031 -4.023438 -11.039062 -3.988281 -11.25 -3.96875 C -11.863281 -3.894531 -12.523438 -3.941406 -13.234375 -4.109375 C -13.960938 -4.273438 -14.609375 -4.582031 -15.171875 -5.03125 C -15.742188 -5.488281 -16.203125 -6.0625 -16.546875 -6.75 C -16.859375 -7.4375 -17.0625 -8.222656 -17.15625 -9.109375 C -17.21875 -9.984375 -17.128906 -10.9375 -16.890625 -11.96875 C -16.640625 -13.070312 -16.304688 -14.03125 -15.890625 -14.84375 C -15.472656 -15.664062 -14.960938 -16.460938 -14.359375 -17.234375 L -13.984375 -17.6875 L -13.46875 -17.34375 L -11.609375 -15.96875 L -11.015625 -15.5625 L -11.515625 -15.015625 C -11.671875 -14.859375 -11.8125 -14.691406 -11.9375 -14.515625 C -12.070312 -14.347656 -12.203125 -14.160156 -12.328125 -13.953125 C -12.460938 -13.753906 -12.601562 -13.546875 -12.75 -13.328125 C -13.125 -12.648438 -13.398438 -11.921875 -13.578125 -11.140625 C -13.691406 -10.640625 -13.742188 -10.1875 -13.734375 -9.78125 C -13.722656 -9.382812 -13.664062 -9.039062 -13.5625 -8.75 C -13.476562 -8.5625 -13.390625 -8.398438 -13.296875 -8.265625 C -13.203125 -8.140625 -13.085938 -8.039062 -12.953125 -7.96875 C -12.828125 -7.894531 -12.679688 -7.835938 -12.515625 -7.796875 C -12.242188 -7.734375 -12.015625 -7.710938 -11.828125 -7.734375 C -11.640625 -7.742188 -11.4375 -7.828125 -11.21875 -7.984375 C -11.09375 -8.085938 -10.953125 -8.210938 -10.796875 -8.359375 C -10.648438 -8.503906 -10.492188 -8.6875 -10.328125 -8.90625 C -10.253906 -9 -10.164062 -9.109375 -10.0625 -9.234375 C -9.96875 -9.359375 -9.867188 -9.488281 -9.765625 -9.625 C -9.660156 -9.769531 -9.550781 -9.925781 -9.4375 -10.09375 C -9.320312 -10.269531 -9.203125 -10.453125 -9.078125 -10.640625 C -8.472656 -11.566406 -7.894531 -12.328125 -7.34375 -12.921875 C -7.207031 -13.054688 -7.082031 -13.179688 -6.96875 -13.296875 C -6.851562 -13.410156 -6.734375 -13.515625 -6.609375 -13.609375 C -6.492188 -13.710938 -6.375 -13.8125 -6.25 -13.90625 C -6.132812 -14 -6.019531 -14.085938 -5.90625 -14.171875 C -5.789062 -14.253906 -5.675781 -14.320312 -5.5625 -14.375 C -4.9375 -14.738281 -4.3125 -14.957031 -3.6875 -15.03125 C -3.0625 -15.082031 -2.414062 -15.035156 -1.75 -14.890625 C -0.8125 -14.671875 -0.0234375 -14.296875 0.609375 -13.765625 C 1.265625 -13.242188 1.769531 -12.609375 2.125 -11.859375 C 2.488281 -11.109375 2.695312 -10.269531 2.75 -9.34375 C 2.78125 -8.4375 2.679688 -7.488281 2.453125 -6.5 C 2.160156 -5.195312 1.71875 -4.046875 1.125 -3.046875 C 0.519531 -2.046875 -0.148438 -1.238281 -0.890625 -0.625 L -1.359375 -0.265625 L -1.765625 -0.6875 L -3.515625 -2.359375 L -4.0625 -2.890625 Z M -3.453125 -3.328125 "/></g></g></g></svg>